<svg xmlns="http://www.w3.org/2000/svg" viewBox="0 0 80 80">
  <rect width="80" height="80" rx="16" fill="#f5ede0"/>
  <rect x="16" y="20" width="21" height="38" rx="3" fill="#6b2737"/>
  <rect x="43" y="20" width="21" height="38" rx="3" fill="#8a3347"/>
  <rect x="36" y="20" width="8" height="38" fill="#f5ede0" opacity="0.7"/>
  <line x1="40" y1="20" x2="40" y2="58" stroke="#6b2737" stroke-width="1.5" opacity="0.4"/>
  <line x1="20" y1="30" x2="30" y2="30" stroke="#f5ede0" stroke-width="1.5" stroke-linecap="round" opacity="0.8"/>
  <line x1="20" y1="37" x2="30" y2="37" stroke="#f5ede0" stroke-width="1.5" stroke-linecap="round" opacity="0.8"/>
  <line x1="20" y1="44" x2="27" y2="44" stroke="#f5ede0" stroke-width="1.5" stroke-linecap="round" opacity="0.8"/>
  <line x1="50" y1="30" x2="60" y2="30" stroke="#f5ede0" stroke-width="1.5" stroke-linecap="round" opacity="0.8"/>
  <line x1="50" y1="37" x2="60" y2="37" stroke="#f5ede0" stroke-width="1.5" stroke-linecap="round" opacity="0.8"/>
  <line x1="50" y1="44" x2="57" y2="44" stroke="#f5ede0" stroke-width="1.5" stroke-linecap="round" opacity="0.8"/>
  <path d="M40 10 L41.2 13.6 L45 13.6 L42 15.8 L43.2 19.4 L40 17.2 L36.8 19.4 L38 15.8 L35 13.6 L38.8 13.6 Z" fill="#6b2737" opacity="0.6"/>
</svg>
